# xmcd
#
# Track frame offsets:
#	150
#	19588
#	39086
#	56560
#	75821
#	93588
#	116513
#	144918
#	157514
#	179390
#	202985
#	205547
#	222570
#	241995
#	260230
#	271655
#	298082
#
# Disc length: 4223 seconds
#
# Revision: 1
# Processed by: cddbd v1.5.2PL0 Copyright (c) Steve Scherf et al.
# Submitted via: audiograbber 1.83.01
#
DISCID=dd107d11
DTITLE=Ημισκουμπρια - The Best And The Rest
DYEAR=2007
DGENRE=Hip-Hop
TTITLE0=Ημισκουμπρια - Στη ντισκοτεκ
TTITLE1=Ημισκουμπρια - Η μαγικη τσατσαρα
TTITLE2=Ημισκουμπρια - Ο κυρης του σπιτιου
TTITLE3=Ημισκουμπρια - Δημοσιο forevah
TTITLE4=Ημισκουμπρια - Ο μοναχος
TTITLE5=Ημισκουμπρια - Μ.Ε.Θ. στο βολαν
TTITLE6=Ημισκουμπρια - Η Απολλωνια κορμαρα
TTITLE7=Ημισκουμπρια - Το σουξε του δισκου
TTITLE8=Ημισκουμπρια - Η μπαλαντα του ζητουλα (Δωσε κυρια κατι)
TTITLE9=Ημισκουμπρια - Καλυτερα νωριτερα
TTITLE10=Ημισκουμπρια - Κλατς FM
TTITLE11=Ημισκουμπρια - Το βουκολικο
TTITLE12=Ημισκουμπρια - Παραμενουμε μουρλοι
TTITLE13=Ημισκουμπρια - Προφυλακτικων εγκωμιον
TTITLE14=Ημισκουμπρια - Τηλεθρηνος
TTITLE15=Ημισκουμπρια - Τσοντα (Κοριτσακι μη σε μελλει)
TTITLE16=Ημισκουμπρια - Je suis bossu
EXTD=
EXTT0=
EXTT1=
EXTT2=
EXTT3=
EXTT4=
EXTT5=
EXTT6=
EXTT7=
EXTT8=
EXTT9=
EXTT10=
EXTT11=
EXTT12=
EXTT13=
EXTT14=
EXTT15=
EXTT16=
PLAYORDER=
